# xmcd
#
# Track frame offsets:
#	150
#	19195
#	33947
#	53867
#	65230
#	81257
#	92902
#	110970
#	124110
#	141735
#	157530
#	172547
#	184842
#	195000
#	216800
#	232015
#	249492
#	266630
#	278845
#	291980
#	307322
#
# Disc length: 4234 seconds
#
# Revision: 1
# Processed by: cddbd v1.4PL0 Copyright (c) Steve Scherf et al.
# Submitted via: EasyCDDAExtractor 5.0.6
#
DISCID=39108815
DTITLE=Aurelian Andreescu
DYEAR=1900
DGENRE=
TTITLE0=Oameni
TTITLE1=Merit eu
TTITLE2=Copacul
TTITLE3=In tot ce e frumos pe lume
TTITLE4=Cintec de leagan
TTITLE5=Inima mea e a ta
TTITLE6=Un fluture si o pasare
TTITLE7=Fluierind pe strada
TTITLE8=Te-ai schimbat
TTITLE9=Dorul
TTITLE10=Love story
TTITLE11=Valuri albe
TTITLE12=O cheama Ninette
TTITLE13=Tu esti primavara mea
TTITLE14=Pentru Maria
TTITLE15=Din focul primului sarut
TTITLE16=Cind vei veni iar linga mine
TTITLE17=Cinta-mi sa uit dragostea
TTITLE18=Nu uita
TTITLE19=Buna dimineata, micuta stea
TTITLE20=Fetitele din Bucuresti
EXTD=
EXTT0=
EXTT1=
EXTT2=
EXTT3=
EXTT4=
EXTT5=
EXTT6=
EXTT7=
EXTT8=
EXTT9=
EXTT10=
EXTT11=
EXTT12=
EXTT13=
EXTT14=
EXTT15=
EXTT16=
EXTT17=
EXTT18=
EXTT19=
EXTT20=
PLAYORDER=
